<?xml version="1.0" encoding="UTF-8" standalone="no"?>
<!DOCTYPE svg PUBLIC "-//W3C//DTD SVG 1.1//EN"
 "http://www.w3.org/Graphics/SVG/1.1/DTD/svg11.dtd">
<!-- Generated by graphviz version 2.43.0 (0)
 -->
<!-- Pages: 1 -->
<svg width="295pt" height="404pt"
 viewBox="0.00 0.00 295.00 404.00" xmlns="http://www.w3.org/2000/svg" xmlns:xlink="http://www.w3.org/1999/xlink">
<g id="graph0" class="graph" transform="scale(1 1) rotate(0) translate(4 400)">
<polygon fill="white" stroke="transparent" points="-4,4 -4,-400 291,-400 291,4 -4,4"/>
<!-- A -->
<g id="node1" class="node">
<title>A</title>
<polygon fill="none" stroke="black" points="237,-396 50,-396 50,-360 237,-360 237,-396"/>
<text text-anchor="middle" x="143.5" y="-374.3" font-family="Times,serif" font-size="14.00">Merchant Center Query</text>
</g>
<!-- B -->
<g id="node2" class="node">
<title>B</title>
<polygon fill="none" stroke="black" points="237.5,-324 49.5,-324 49.5,-288 237.5,-288 237.5,-324"/>
<text text-anchor="middle" x="143.5" y="-302.3" font-family="Times,serif" font-size="14.00">Product Graph Creation</text>
</g>
<!-- A&#45;&gt;B -->
<g id="edge1" class="edge">
<title>A&#45;&gt;B</title>
<path fill="none" stroke="black" d="M143.5,-359.7C143.5,-351.98 143.5,-342.71 143.5,-334.11"/>
<polygon fill="black" stroke="black" points="147,-334.1 143.5,-324.1 140,-334.1 147,-334.1"/>
</g>
<!-- C -->
<g id="node3" class="node">
<title>C</title>
<polygon fill="none" stroke="black" points="242,-252 45,-252 45,-216 242,-216 242,-252"/>
<text text-anchor="middle" x="143.5" y="-230.3" font-family="Times,serif" font-size="14.00">Send Graphs to Webhook</text>
</g>
<!-- B&#45;&gt;C -->
<g id="edge2" class="edge">
<title>B&#45;&gt;C</title>
<path fill="none" stroke="black" d="M143.5,-287.7C143.5,-279.98 143.5,-270.71 143.5,-262.11"/>
<polygon fill="black" stroke="black" points="147,-262.1 143.5,-252.1 140,-262.1 147,-262.1"/>
</g>
<!-- D -->
<g id="node4" class="node">
<title>D</title>
<polygon fill="none" stroke="black" points="287,-180 0,-180 0,-144 287,-144 287,-180"/>
<text text-anchor="middle" x="143.5" y="-158.3" font-family="Times,serif" font-size="14.00">Webhook Processes &amp; Updates Graph</text>
</g>
<!-- C&#45;&gt;D -->
<g id="edge3" class="edge">
<title>C&#45;&gt;D</title>
<path fill="none" stroke="black" d="M143.5,-215.7C143.5,-207.98 143.5,-198.71 143.5,-190.11"/>
<polygon fill="black" stroke="black" points="147,-190.1 143.5,-180.1 140,-190.1 147,-190.1"/>
</g>
<!-- E -->
<g id="node5" class="node">
<title>E</title>
<polygon fill="none" stroke="black" points="221.5,-108 65.5,-108 65.5,-72 221.5,-72 221.5,-108"/>
<text text-anchor="middle" x="143.5" y="-86.3" font-family="Times,serif" font-size="14.00">Response Returned</text>
</g>
<!-- D&#45;&gt;E -->
<g id="edge4" class="edge">
<title>D&#45;&gt;E</title>
<path fill="none" stroke="black" d="M143.5,-143.7C143.5,-135.98 143.5,-126.71 143.5,-118.11"/>
<polygon fill="black" stroke="black" points="147,-118.1 143.5,-108.1 140,-118.1 147,-118.1"/>
</g>
<!-- F -->
<g id="node6" class="node">
<title>F</title>
<polygon fill="none" stroke="black" points="284,-36 3,-36 3,0 284,0 284,-36"/>
<text text-anchor="middle" x="143.5" y="-14.3" font-family="Times,serif" font-size="14.00">Write Updated Graph to Graph Store</text>
</g>
<!-- E&#45;&gt;F -->
<g id="edge5" class="edge">
<title>E&#45;&gt;F</title>
<path fill="none" stroke="black" d="M143.5,-71.7C143.5,-63.98 143.5,-54.71 143.5,-46.11"/>
<polygon fill="black" stroke="black" points="147,-46.1 143.5,-36.1 140,-46.1 147,-46.1"/>
</g>
</g>
</svg>
