<?xml version="1.0" encoding="UTF-8"?>
<svg id="Layer_2" data-name="Layer 2" xmlns="http://www.w3.org/2000/svg" viewBox="0 0 120 120">
  <defs>
    <style>
      .cls-1 {
        fill: #fff;
      }

      .cls-2 {
        fill: #3452db;
      }
    </style>
  </defs>
  <g id="Layer_1-2" data-name="Layer 1">
    <g>
      <path class="cls-2" d="M0,16C0,7.16,7.16,0,16,0h88c8.84,0,16,7.16,16,16v88c0,8.84-7.16,16-16,16H16c-8.84,0-16-7.16-16-16V16Z"/>
      <path class="cls-1" d="M66.3,90c-.34,0-.64-.22-.73-.54l-8.35-28.2c-.21-.72-1.25-.72-1.47,0l-8.27,28.2c-.09.32-.39.54-.73.54h-11.58c-.34,0-.64-.22-.73-.54l-10.4-35.91c-.14-.48.23-.96.73-.96h10.76c.35,0,.65.23.74.56l4.4,16.58c.2.74,1.26.75,1.47.02l8.04-27.26c.09-.32.39-.54.73-.54h11.4c.34,0,.64.22.73.55l7.81,27.3c.21.73,1.26.73,1.47,0l11.23-39.24c.09-.32.39-.55.73-.55h10.95c.51,0,.88.48.73.96l-17.44,58.5c-.1.32-.39.54-.73.54h-11.49Z"/>
    </g>
  </g>
</svg>