<?xml version="1.0" encoding="UTF-8"?>
<svg id="Layer_2" data-name="Layer 2" xmlns="http://www.w3.org/2000/svg" viewBox="0 0 600 120">
  <defs>
    <style>
      .cls-1 {
        fill: #fff;
      }
    </style>
  </defs>
  <g id="Layer_1-2" data-name="Layer 1">
    <g>
      <path class="cls-1" d="M169.52,120c-25.29,0-44.21-19.47-44.21-44.2s18.92-44.2,44.21-44.2,44.21,19.31,44.21,44.2-18.92,44.2-44.21,44.2ZM169.52,100.37c11.26,0,20.88-8.78,20.88-24.57s-9.62-24.41-20.88-24.41-20.88,8.62-20.88,24.41,9.62,24.57,20.88,24.57Z"/>
      <path class="cls-1" d="M250.88,77.07v40c0,.74-.61,1.33-1.36,1.33h-19.96c-.75,0-1.36-.6-1.36-1.33V34.52c0-.73.61-1.33,1.36-1.33h18.16c.75,0,1.36.6,1.36,1.33v10.11c0,1.36,2.02,1.95,2.9.89,6.81-8.07,17.99-12.93,29.67-13.28.75-.02,1.36.57,1.36,1.31v20.21c0,.77-.68,1.38-1.47,1.34-18.43-1.1-30.67,3.61-30.67,21.96Z"/>
      <path class="cls-1" d="M289.09,75.8c0-25.21,15.17-44.2,38.66-44.2,9.12,0,17,3.41,23.2,9.7.9.91,2.58.32,2.58-.94V5.16c0-.73.61-1.33,1.36-1.33h19.79c.75,0,1.36.6,1.36,1.33v111.91c0,.74-.61,1.33-1.36,1.33h-18c-.75,0-1.36-.6-1.36-1.33v-6.97c0-1.28-1.72-1.86-2.6-.92-6.57,6.99-15.07,10.81-24.97,10.81-23.49,0-38.66-19.31-38.66-44.2ZM312.42,75.8c0,15.96,9.3,24.42,20.39,24.42s20.56-8.62,20.56-24.73-9.46-24.26-20.56-24.26-20.39,8.3-20.39,24.57Z"/>
      <path class="cls-1" d="M420.75,117.07c0,.74-.61,1.33-1.36,1.33h-20.12c-.75,0-1.36-.6-1.36-1.33V5.16c0-.73.61-1.33,1.36-1.33h20.12c.75,0,1.36.6,1.36,1.33v111.91Z"/>
      <path class="cls-1" d="M468.98,13.4c0,7.5-6.2,13.09-15.17,13.09s-15.01-5.59-15.01-13.09,6.2-13.4,15.01-13.4,15.17,5.59,15.17,13.4ZM465.39,117.07c0,.74-.61,1.33-1.36,1.33h-19.96c-.75,0-1.36-.6-1.36-1.33V34.52c0-.73.61-1.33,1.36-1.33h19.96c.75,0,1.36.6,1.36,1.33v82.55Z"/>
      <path class="cls-1" d="M74.5,119.68c-.6,0-1.14-.39-1.31-.96l-14.88-50.01c-.38-1.28-2.23-1.28-2.61,0l-14.73,50c-.17.57-.7.96-1.31.96h-20.63c-.61,0-1.14-.39-1.31-.96L.05,58.21c-.25-.85.4-1.7,1.31-1.7h19.17c.62,0,1.16.41,1.32.99l6.99,26.22c.35,1.31,2.24,1.33,2.62.03l14.33-48.34c.17-.57.7-.96,1.31-.96h20.3c.61,0,1.14.4,1.31.97l13.95,48.55c.37,1.28,2.22,1.3,2.61.02L109.47,4.81c.17-.56.7-.95,1.3-.95h19.5c.91,0,1.57.86,1.3,1.72l-35.28,113.17c-.17.56-.7.94-1.3.94h-20.49Z"/>
      <path class="cls-1" d="M516.68,118.4h-19.79c-.75,0-1.36-.6-1.36-1.33v-63.56c0-.73-.61-1.33-1.36-1.33h-14.9c-.75,0-1.36-.6-1.36-1.33v-16.33c0-.73.61-1.33,1.36-1.33h14.9c.75,0,1.36-.6,1.36-1.33v-3.3c0-16.91,9.3-26.49,27.41-26.49,5.15,0,9.6.82,13.21,2.22.5.19.82.68.82,1.21v14.72c0,.94-.98,1.6-1.91,1.35-2.1-.55-4.51-.82-6.74-.82-6.2,0-10.28,2.39-10.28,8.3v2.82c0,.73.61,1.33,1.36,1.33h31.77c.75,0,1.36-.6,1.36-1.33V9.31c0-.73.61-1.33,1.36-1.33h19.8c.75,0,1.36.6,1.36,1.33v22.55c0,.73.61,1.33,1.36,1.33h22.24c.75,0,1.36.6,1.36,1.33v16.33c0,.73-.61,1.33-1.36,1.33h-22.24c-.75,0-1.36.6-1.36,1.33v32.18c0,9.89,4.57,13.88,12.73,13.88h10.06c.75,0,1.36.6,1.36,1.33v17.77c0,.74-.61,1.33-1.36,1.33h-16.09c-17.95,0-29.2-10.05-29.2-29.2v-37.29c0-.73-.61-1.33-1.36-1.33h-31.77c-.75,0-1.36.6-1.36,1.33v63.56c0,.74-.61,1.33-1.36,1.33Z"/>
    </g>
  </g>
</svg>